<svg xmlns="http://www.w3.org/2000/svg" viewBox="0 0 100 100" fill="none">
  <rect width="100" height="100" rx="20" fill="#0D1B2A"/>
  <!-- M letter -->
  <path d="M6 85 L6 14 Q24 14 38 52 Q52 14 70 14 L70 85"
        stroke="white" stroke-width="8.5" stroke-linecap="round" stroke-linejoin="round"/>
  <!-- Teal route arrow from M valley to R bowl -->
  <path d="M38 52 C47 74 60 72 68 61 C73 54 76 47 78 40"
        stroke="url(#fg)" stroke-width="6.5" stroke-linecap="round"/>
  <!-- Arrow tip -->
  <path d="M72 33 L79 41 L71 47"
        stroke="url(#fg)" stroke-width="6" stroke-linecap="round" stroke-linejoin="round"/>
  <!-- R letter -->
  <path d="M82 85 L82 14 L90 14 Q98 14 98 27 Q98 40 90 40 L82 40 M88 40 L97 85"
        stroke="white" stroke-width="8.5" stroke-linecap="round" stroke-linejoin="round"/>
  <defs>
    <linearGradient id="fg" x1="38" y1="52" x2="79" y2="38" gradientUnits="userSpaceOnUse">
      <stop stop-color="#2DD4BF"/>
      <stop offset="1" stop-color="#A7F3D0"/>
    </linearGradient>
  </defs>
</svg>
